<svg width="27" height="27" viewBox="0 0 27 27" fill="none" xmlns="http://www.w3.org/2000/svg">
<path d="M13.5 2.53125C7.4423 2.53125 2.53125 7.4423 2.53125 13.5C2.53125 18.6794 6.12225 23.0175 10.9498 24.1675C10.7 24.108 10.4524 24.0414 10.2094 23.9655V21.4523C10.2094 21.4523 9.79805 21.5895 9.24961 21.5895C7.71525 21.5895 7.0778 20.2205 6.91875 19.5328C6.82214 19.1139 6.56986 18.7169 6.29902 18.4743C5.97544 18.1858 5.82398 18.1849 5.82188 18.0862C5.81766 17.8791 6.09947 17.8875 6.2332 17.8875C6.91875 17.8875 7.4385 18.6169 7.67981 18.9941C8.27761 19.9252 8.91928 20.0812 9.24961 20.0812C9.66094 20.0812 10.0162 20.0197 10.2608 19.9015C10.3739 19.105 10.7283 18.3954 11.3062 17.8875C8.73408 17.3732 6.91875 15.8979 6.91875 13.5C6.91875 12.2648 7.41445 11.1295 8.24048 10.2127C8.15611 9.97355 8.01562 9.48966 8.01562 8.70117C8.01562 8.18016 8.05191 7.54059 8.28984 6.91875C8.28984 6.91875 9.85416 6.92972 11.3295 8.32697C12.0104 8.12869 12.7389 8.01562 13.5 8.01562C14.2611 8.01562 14.9896 8.12869 15.6705 8.32697C17.1458 6.92972 18.7102 6.91875 18.7102 6.91875C18.9494 7.54059 18.9844 8.18016 18.9844 8.70117C18.9844 9.55125 18.8713 10.047 18.8021 10.2608C19.6028 11.1691 20.0812 12.2867 20.0812 13.5C20.0812 15.8979 18.2659 17.3732 15.6938 17.8875C16.3806 18.4908 16.7906 19.3695 16.7906 20.3555V23.9655C16.5476 24.0418 16.3004 24.108 16.0502 24.1675C20.8777 23.0175 24.4688 18.6794 24.4688 13.5C24.4688 7.4423 19.5577 2.53125 13.5 2.53125ZM14.2649 24.4392C14.0122 24.4569 13.7573 24.4688 13.5 24.4688C13.7573 24.4688 14.0117 24.4565 14.2649 24.4392ZM13.5 24.4688C13.2427 24.4688 12.9878 24.4569 12.7351 24.4392C12.9883 24.4565 13.2427 24.4688 13.5 24.4688ZM12.5668 24.4266C12.0534 24.3831 11.5497 24.3046 11.059 24.1928C11.5501 24.3042 12.0534 24.3831 12.5668 24.4266Z" fill="black"/>
</svg>
