<svg width="31" height="31" viewBox="0 0 31 31" fill="none" xmlns="http://www.w3.org/2000/svg">
<g clip-path="url(#clip0_616_27)">
<path d="M28.4167 9.73267V21.9583C28.4168 22.9467 28.0391 23.8977 27.3611 24.6169C26.683 25.336 25.7557 25.7688 24.769 25.8268L24.5417 25.8333H6.45837C5.46998 25.8333 4.51892 25.4557 3.79979 24.7776C3.08066 24.0996 2.64782 23.1723 2.58983 22.1856L2.58337 21.9583V9.73267L14.7832 17.8663L14.933 17.9515C15.1096 18.0378 15.3035 18.0827 15.5 18.0827C15.6966 18.0827 15.8905 18.0378 16.0671 17.9515L16.2169 17.8663L28.4167 9.73267Z" fill="black"/>
<path d="M24.5416 5.16663C25.9366 5.16663 27.1598 5.90288 27.8418 7.00983L15.5 15.2378L3.15808 7.00983C3.48194 6.48383 3.9269 6.04289 4.45583 5.72383C4.98476 5.40476 5.58232 5.21682 6.19866 5.17567L6.45829 5.16663H24.5416Z" fill="black"/>
</g>
<defs>
<clipPath id="clip0_616_27">
<rect width="31" height="31" fill="white"/>
</clipPath>
</defs>
</svg>
