<svg width="26" height="26" viewBox="0 0 26 26" fill="none" xmlns="http://www.w3.org/2000/svg">
<path d="M21.32 2.07996H4.67996C3.24476 2.07996 2.07996 3.24476 2.07996 4.67996V21.32C2.07996 22.7552 3.24476 23.92 4.67996 23.92H21.32C22.7552 23.92 23.92 22.7552 23.92 21.32V4.67996C23.92 3.24476 22.7552 2.07996 21.32 2.07996ZM8.83996 10.4V20.28H5.71996V10.4H8.83996ZM5.71996 7.52436C5.71996 6.79636 6.34396 6.23996 7.27996 6.23996C8.21596 6.23996 8.80356 6.79636 8.83996 7.52436C8.83996 8.25236 8.25756 8.83996 7.27996 8.83996C6.34396 8.83996 5.71996 8.25236 5.71996 7.52436ZM20.28 20.28H17.16C17.16 20.28 17.16 15.4648 17.16 15.08C17.16 14.04 16.64 13 15.34 12.9792H15.2984C14.04 12.9792 13.52 14.0504 13.52 15.08C13.52 15.5532 13.52 20.28 13.52 20.28H10.4V10.4H13.52V11.7312C13.52 11.7312 14.5236 10.4 16.5412 10.4C18.6056 10.4 20.28 11.8196 20.28 14.6952V20.28Z" fill="black"/>
</svg>
